<svg width="83" height="60" viewBox="0 0 83 60" fill="none" xmlns="http://www.w3.org/2000/svg">
<path d="M4.53125 26C2.32211 26 0.53125 27.7909 0.53125 30C0.53125 32.2091 2.32211 34 4.53125 34V26ZM81.3597 32.8284C82.9218 31.2663 82.9218 28.7337 81.3597 27.1716L55.9038 1.71573C54.3417 0.153631 51.8091 0.153631 50.247 1.71573C48.6849 3.27783 48.6849 5.81049 50.247 7.37258L72.8744 30L50.247 52.6274C48.6849 54.1895 48.6849 56.7222 50.247 58.2843C51.8091 59.8464 54.3417 59.8464 55.9038 58.2843L81.3597 32.8284ZM4.53125 34H78.5312V26H4.53125V34Z" fill="white"/>
</svg>
