<svg width="110" height="110" viewBox="0 0 110 110" fill="none" xmlns="http://www.w3.org/2000/svg">
<path d="M37.4287 4.25729L37.4289 4.25672L37.47 4.12731L37.4702 4.12664C37.7698 3.18598 38.7024 2.59259 39.6842 2.72566L39.6858 2.72588L39.7424 2.73364L39.7434 2.73378L39.7987 2.74132C46.4419 3.64546 53.4152 4.59456 60.3798 7.87016L60.3799 7.87021C66.8541 10.9161 73.2372 15.9392 79.4084 20.9162L79.4182 20.9231L79.4361 20.9359L79.4429 20.9408L79.4497 20.9458L79.4624 20.9552L79.4703 20.961L79.4781 20.967L79.4955 20.9804L79.5033 20.9864L79.5111 20.9926L79.5264 21.005L79.5345 21.0115L79.6097 21.0731L79.6102 21.0736L80.1154 21.4868L80.1201 21.4906L80.7038 21.9621L80.7041 21.9624L80.7735 22.0184L80.7736 22.0184C80.8064 22.045 80.8385 22.0726 80.8698 22.1012M37.4287 4.25729L80.0757 22.7402L80.1454 22.7965C80.1622 22.81 80.1785 22.8241 80.1944 22.8386M37.4287 4.25729L37.4191 4.28757C27.6127 35.214 17.783 66.2141 13.5751 82.5511C11.4879 90.6528 10.7188 95.3529 10.737 98.3152C10.7463 99.8146 10.9564 100.92 11.3328 101.818C11.7111 102.72 12.2289 103.339 12.7199 103.878M37.4287 4.25729L106.802 57.2838M80.8698 22.1012L80.8681 22.103C80.8779 22.1109 80.8876 22.1189 80.8973 22.1269M80.8698 22.1012C80.8697 22.1011 80.8697 22.1011 80.8696 22.101L80.868 22.1028C80.8667 22.1018 80.8654 22.1007 80.8641 22.0997L80.8071 22.1693L80.1944 22.8386M80.8698 22.1012C80.879 22.1096 80.8882 22.1182 80.8973 22.1269M80.8973 22.1269C80.9118 22.1407 80.9262 22.1547 80.9404 22.169L80.2304 22.8732M80.8973 22.1269C87.0271 27.1493 93.2453 32.3697 97.5469 38.0831M80.2304 22.8732L80.8045 22.1725L80.1944 22.8386M80.2304 22.8732C86.3858 27.9162 92.5227 33.0725 96.7481 38.6847M80.2304 22.8732C80.2242 22.867 80.218 22.8609 80.2116 22.8548C80.206 22.8494 80.2002 22.844 80.1944 22.8386M97.5469 38.0831L96.7481 38.6847M97.5469 38.0831C102.176 44.2291 104.525 50.8585 106.764 57.1742L106.782 57.2273L106.783 57.2304L106.786 57.2367L106.786 57.2391L106.802 57.2818C106.802 57.2825 106.802 57.2831 106.802 57.2838M97.5469 38.0831C97.5469 38.0831 97.5469 38.0832 97.547 38.0832L96.7481 38.6847M96.7481 38.6847L106.802 57.2838M78.9008 21.7851L78.9766 21.8472L78.9008 21.7851ZM78.9008 21.7851L78.8854 21.7728M78.9008 21.7851L78.8854 21.7728M78.8854 21.7728L78.8681 21.7594M78.8854 21.7728L78.8681 21.7594M78.8681 21.7594L78.8553 21.75M78.8681 21.7594L78.8553 21.75M78.8553 21.75L78.8373 21.7371M78.8553 21.75L78.8373 21.7371M78.8373 21.7371L78.8132 21.7208L78.8373 21.7371ZM105.391 58.8662L105.231 58.956M105.391 58.8662L13.7139 103.412C16.0995 104.819 18.4638 105.577 33.4813 98.1952C48.5946 90.7672 76.9232 74.8558 105.231 58.956M105.391 58.8662C105.83 58.6183 106.029 58.0919 105.86 57.6182M105.391 58.8662L105.86 57.6182M105.231 58.956L105.721 59.8279L105.881 59.7381L105.882 59.7371C106.741 59.2527 107.136 58.2199 106.802 57.2838M105.231 58.956L105.721 59.8279L105.686 59.8472C77.4045 75.7325 49.061 91.6523 33.9224 99.0927C26.4107 102.785 21.9634 104.494 19.0581 105.08C17.5876 105.376 16.4619 105.396 15.5067 105.21C14.5461 105.024 13.8337 104.644 13.2058 104.273L13.2057 104.273C13.1079 104.216 13.0166 104.151 12.932 104.08C12.8575 104.019 12.7865 103.951 12.7199 103.878M12.7199 103.878C12.7197 103.878 12.7195 103.878 12.7194 103.877L13.4595 103.205L12.7204 103.879C12.7203 103.878 12.7201 103.878 12.7199 103.878ZM105.86 57.6182L105.84 57.5631L105.86 57.6182ZM71.3916 35.3694L71.3927 35.3702L71.443 35.4112C71.4893 35.4488 71.5339 35.4884 71.5766 35.5299C76.0356 39.2114 80.4235 43.0983 83.691 47.4944M71.3916 35.3694L70.9037 36.2712C75.3695 39.9569 79.69 43.7877 82.8884 48.0909C86.4826 52.9245 88.6366 58.3196 90.6132 63.6494C90.9073 63.4845 91.2016 63.3194 91.4962 63.1542M71.3916 35.3694L71.3679 35.35L71.3669 35.3493C70.9109 34.9779 70.4534 34.6055 69.9948 34.2332C69.6343 33.9394 69.2737 33.6463 68.9139 33.3542L68.9137 33.354L68.3736 32.9157L68.3151 32.8682L70.7723 36.1299L71.3916 35.3694ZM83.691 47.4944L82.8905 48.0893L83.6908 47.4942C83.6909 47.4942 83.6909 47.4943 83.691 47.4944ZM83.691 47.4944C87.3423 52.4048 89.5322 57.8654 91.4962 63.1542M91.4962 63.1542C95.1066 61.1292 98.7496 59.0832 102.398 57.0343M91.4962 63.1542C91.614 63.4714 91.7309 63.788 91.8474 64.1038C95.7457 61.9174 99.6825 59.7063 103.623 57.4932C101.453 51.3834 99.243 45.4361 95.0972 39.93C90.8799 34.3289 84.6321 29.1466 78.201 23.8841L102.398 57.0343M102.398 57.0343C100.317 51.2105 98.1662 45.6684 94.2983 40.5315L95.0346 39.9772L94.2983 40.5315C90.1674 35.0452 84.0219 29.9395 77.5707 24.6604M102.398 57.0343L77.5707 24.6604M77.5707 24.6604C71.0951 19.4313 64.8515 14.4701 58.6447 11.5492C52.8238 8.81159 46.9564 7.8359 40.8271 6.98626C39.563 10.9728 38.3009 14.954 37.0527 18.8988C42.6328 19.7433 48.4287 20.7738 53.983 23.3456C58.9529 25.6467 63.6529 29.1464 68.1667 32.7586L68.171 32.7614C68.1958 32.7782 68.2221 32.7967 68.2496 32.8172L68.2508 32.8182C68.27 32.8325 68.2916 32.8491 68.3145 32.8677L77.5707 24.6604ZM52.2706 27.0352L52.2705 27.0352C47.0782 24.6309 41.5901 23.6909 35.8113 22.8245C31.8834 35.2559 28.1377 47.2087 24.9529 57.6944C27.6124 55.3198 31.4475 54.4267 35.0396 55.6961L52.2706 27.0352ZM52.2706 27.0352C57.3392 29.3815 62.2139 33.1628 67.2574 37.2512C72.3302 41.3841 77.071 45.4082 80.4274 49.922C83.8401 54.5123 85.8787 59.6902 87.905 65.1675C65.2652 77.8535 44.3335 89.4483 32.1346 95.4446C24.8137 99.0428 20.8042 100.532 18.5023 101.043C17.3605 101.297 16.704 101.294 16.3048 101.228C15.9761 101.173 15.7742 101.07 15.5264 100.922C15.3317 100.71 15.1904 100.534 15.0702 100.225C14.9238 99.8485 14.7876 99.2071 14.8036 98.0386C14.8357 95.6826 15.4777 91.4565 17.5115 83.5598C18.6202 79.2562 20.1251 73.9168 21.922 67.8139M52.2706 27.0352L21.922 67.8139M21.922 67.8139C22.7485 70.9073 25.0342 73.5522 28.2818 74.7L28.282 74.7001C33.5259 76.5522 39.2861 73.7986 41.1531 68.5543L41.1532 68.5541C43.0195 63.3076 40.2856 57.5491 35.0398 55.6962L21.922 67.8139ZM67.5316 63.4868L67.5314 63.4867C64.4526 62.3991 62.8427 59.0175 63.9416 55.9306L63.0859 55.626L63.9416 55.9306C65.0405 52.8428 68.4312 51.2254 71.5132 52.3137C74.5919 53.4014 76.2016 56.7832 75.1028 59.87L75.1027 59.8701C74.0039 62.9578 70.6124 64.5758 67.5316 63.4868ZM29.6415 70.8662L29.6413 70.8661C26.5169 69.7625 24.8844 66.3316 25.9982 63.1997C27.1138 60.0661 30.5547 58.4245 33.6806 59.5295L33.6806 59.5295C36.8049 60.6337 38.4376 64.064 37.3233 67.1968C36.2077 70.3301 32.7673 71.9709 29.6415 70.8662ZM39.7864 30.6243L39.7862 30.6246C38.4264 34.4487 40.4185 38.6474 44.2434 39.9982C48.0661 41.3492 52.2647 39.3417 53.6249 35.5196C54.9861 31.6955 52.9925 27.4977 49.1686 26.1465C45.3464 24.7959 41.1471 26.8023 39.7864 30.6243ZM43.6166 31.9831L43.6167 31.9829C44.2253 30.2723 46.1045 29.377 47.8088 29.9791C49.5122 30.581 50.4035 32.4516 49.7953 34.162C49.1861 35.8732 47.3078 36.7679 45.6029 36.1652L45.6028 36.1652C43.8991 35.5631 43.008 33.6923 43.6166 31.9831ZM72.8724 48.4806C67.6737 46.6432 61.9629 49.3736 60.1122 54.5729C58.2609 59.7739 60.9712 65.483 66.1725 67.3201C71.3709 69.1571 77.0817 66.4268 78.9323 61.2275C80.7837 56.0262 78.0721 50.3183 72.8724 48.4806Z" fill="#FEFEFE" stroke="white" stroke-width="2"/>
</svg>
