<svg width="116" height="110" viewBox="0 0 116 110" fill="none" xmlns="http://www.w3.org/2000/svg">
<path d="M34.5295 18.3721C14.7351 30.3143 8.48747 56.1749 20.5208 76.1199C32.5541 96.0649 58.3454 102.596 78.1397 90.6524C97.9331 78.7103 104.182 52.8496 92.1482 32.9046C80.1149 12.9599 54.3239 6.42898 34.5295 18.3721ZM34.5295 18.3721L35.0461 19.2284L34.5295 18.3721ZM88.8293 34.9074L89.6855 34.3908L88.8293 34.9074C99.7748 53.0492 94.0685 76.5155 76.1373 87.3347C58.2047 98.1528 34.7851 92.2598 23.8397 74.1177L23.8397 74.1177C12.8942 55.9768 18.6005 32.5102 36.532 21.6913L36.0252 20.8513L36.532 21.6913C54.4633 10.8723 77.8838 16.7652 88.8293 34.9074Z" fill="#FEFEFE" stroke="white" stroke-width="2"/>
<path d="M91.9821 41.3613H93.3709H93.3752H93.4438L93.5117 41.3707C94.1935 41.4646 94.8649 41.5641 95.5246 41.671H95.5255L95.6051 41.6839C101.068 42.5711 105.687 43.8876 109.034 45.6467C112.354 47.3911 114.646 49.6971 114.963 52.6492L114.963 52.6493C115.307 55.8568 113.216 58.8131 109.864 61.3845C106.599 63.8895 101.907 66.2175 96.251 68.2742V68.573H95.4191C94.9529 68.7376 94.48 68.9005 94.0007 69.0615V69.6437L93.026 69.3836C83.7523 72.4054 72.2422 74.7785 60.0125 76.0901C53.129 76.8286 46.4013 77.1902 40.105 77.1902C33.9784 77.1902 28.2535 76.8483 23.1911 76.1751L23.0833 76.1608L23.0804 76.1597C22.3198 76.0577 21.5748 75.9484 20.8443 75.8311H20.5092L20.443 75.7652C15.1011 74.8808 10.5815 73.5813 7.28819 71.8547C3.95782 70.1086 1.65715 67.7991 1.33917 64.8412L1.33914 64.841C1.03013 61.9603 2.69153 59.2796 5.43938 56.9168L91.9821 41.3613ZM91.9821 41.3613L92.4225 42.6784C92.6367 43.319 92.8326 43.9622 93.0107 44.6086L93.2131 45.343H93.9052M91.9821 41.3613L93.9052 45.343M93.9052 45.343C94.2752 45.3977 94.6406 45.4545 95.0012 45.513V45.6674H95.919C100.68 46.4974 104.469 47.6331 107.091 48.9691C109.788 50.3431 110.971 51.7779 111.109 53.063C111.258 54.4553 110.241 56.2705 107.49 58.3572C104.808 60.3915 100.755 62.4653 95.5561 64.3992C94.8605 64.6578 94.1458 64.9133 93.4111 65.1669C84.5271 68.225 72.8693 70.8122 59.5985 72.2362L59.5984 72.2362C52.69 72.9782 46.1399 73.3181 40.1285 73.3181C33.4072 73.3181 27.3683 72.8925 22.2628 72.1282C21.4781 72.0104 20.7146 71.8841 19.9747 71.751L19.8869 71.7352H19.8863C15.2736 70.8983 11.6103 69.7703 9.07593 68.4521C6.47128 67.0973 5.32887 65.6897 5.19305 64.4278L93.9052 45.343ZM10.3712 58.0457C11.7822 57.1348 13.4592 56.2214 15.3825 55.3218L16.3996 55.8267V54.8576C16.7021 54.723 17.0101 54.5887 17.3237 54.4546L18.2558 54.7662L18.2842 53.4081C18.2984 52.7326 18.3298 52.0602 18.3793 51.3892L18.493 49.8471L17.04 50.376L17.0372 50.377L17.0192 50.3836L17.0014 50.3909C16.3329 50.6637 15.6802 50.9401 15.0452 51.2208L15.0445 51.221C11.9243 52.6027 9.23067 54.0793 7.07812 55.6303L7.07765 55.6306C6.49244 56.0528 5.94526 56.4816 5.43958 56.9166L10.3712 58.0457ZM10.3712 58.0457L10.1598 58.1844C9.54808 58.5859 8.99086 58.9871 8.48718 59.3854L8.48687 59.3857C5.97105 61.3739 5.05083 63.0968 5.19301 64.4274L10.3712 58.0457ZM8.90399 58.0555L9.61009 57.3494C9.61001 58.3474 9.55018 58.3456 9.49057 58.3402C9.47401 58.3381 9.42851 58.3308 9.39968 58.325C9.34846 58.314 9.30623 58.3007 9.27545 58.2897C9.21574 58.2685 9.17015 58.2459 9.14451 58.2324C9.09336 58.2055 9.05585 58.18 9.04057 58.1694C9.00677 58.1459 8.98194 58.1255 8.97444 58.1194C8.95529 58.1036 8.94094 58.0905 8.93745 58.0874C8.92735 58.0782 8.91963 58.0708 8.918 58.0692L8.90815 58.0596L8.90509 58.0566L8.90399 58.0555Z" fill="#FEFEFE" stroke="white" stroke-width="2"/>
<path d="M38.0202 41.8068L38.0199 41.8069C34.8493 43.0179 31.2961 41.4301 30.0845 38.2595L38.0202 41.8068ZM38.0202 41.8068C41.1917 40.5943 42.78 37.0411 41.5676 33.8701C40.3551 30.6986 36.8017 29.1103 33.6309 30.3227L33.6308 30.3227M38.0202 41.8068L33.6308 30.3227M33.6308 30.3227C30.4606 31.5352 28.8719 35.0881 30.0844 38.2592L33.6308 30.3227ZM35.0154 33.9438L35.0158 33.9437C36.1871 33.4954 37.4997 34.0819 37.9475 35.2535C38.3952 36.4251 37.8083 37.7379 36.6368 38.1856C35.4652 38.6333 34.1524 38.0465 33.7047 36.8749L33.7046 36.8747C33.2571 35.7045 33.8436 34.3916 35.0154 33.9438Z" fill="#FEFEFE" stroke="white" stroke-width="2"/>
<path d="M81.0732 43.3892L81.0733 43.3895C82.1574 46.5569 80.4697 50.002 77.3026 51.0868C74.1358 52.1718 70.6892 50.4833 69.6057 47.3168L81.0732 43.3892ZM81.0732 43.3892C79.9885 40.2227 76.5423 38.5354 73.3763 39.6189L73.376 39.619C70.2099 40.7036 68.521 44.1495 69.6056 47.3164L81.0732 43.3892ZM74.6318 43.2866L74.6317 43.2867C73.4899 43.6774 72.8814 44.9193 73.2721 46.061L74.6318 43.2866ZM74.6318 43.2866C75.7729 42.896 77.0149 43.5043 77.4058 44.645L74.6318 43.2866ZM77.4059 44.6453C77.7963 45.7863 77.1881 47.0286 76.0461 47.4205C74.9048 47.8109 73.6628 47.2023 73.2721 46.061L77.4059 44.6453Z" fill="#FEFEFE" stroke="white" stroke-width="2"/>
<path d="M48.9467 82.8206L48.9465 82.8206C48.2299 83.0659 47.8476 83.8466 48.0933 84.5623L48.0936 84.5632C48.3385 85.279 49.1181 85.6616 49.8363 85.4161L48.9467 82.8206ZM48.9467 82.8206C49.6634 82.5751 50.4439 82.9576 50.689 83.6734L48.9467 82.8206ZM51.0911 89.084L51.0916 89.0838C53.833 88.1447 55.2948 85.1609 54.3559 82.4183C53.4178 79.6762 50.4334 78.2151 47.6914 79.1528L47.691 79.1529C44.9485 80.092 43.4867 83.076 44.4258 85.8185L44.4259 85.8186C45.365 88.5604 48.3489 90.0218 51.0911 89.084ZM50.6891 83.6736C50.9346 84.3918 50.5517 85.1714 49.8363 85.4161L50.6891 83.6736Z" fill="#FEFEFE" stroke="white" stroke-width="2"/>
<path d="M96.3989 47.9772L96.476 48.0066C98.0452 48.6023 100.244 49.437 100.298 52.4486C100.353 55.5558 98.1401 59.8738 84.8055 63.0043C71.8341 66.0491 47.8341 68.1158 33.226 68.1158C32.7748 68.1158 32.3418 68.1137 31.908 68.1097C17.6909 67.9799 13.1375 65.7081 12.097 63.2565C10.9872 60.6454 14.1068 58.9894 15.9688 58.001C16.0857 57.9389 16.1977 57.8795 16.3034 57.8226L96.3989 47.9772ZM96.3989 47.9772C95.9143 47.7936 95.373 48.0368 95.1882 48.5216M96.3989 47.9772L95.1882 48.5216M18.4545 57.7305C17.9471 56.7861 16.7698 56.4357 15.8294 56.9421M18.4545 57.7305L17.5736 58.2038L18.4541 57.7298C18.4542 57.73 18.4544 57.7303 18.4545 57.7305ZM18.4545 57.7305C18.9607 58.6718 18.6104 59.8468 17.667 60.3545L15.8294 56.9421M15.8294 56.9421C15.731 56.9951 15.6236 57.0519 15.5089 57.1126C14.6481 57.5684 13.3754 58.2422 12.4129 59.1216C11.8566 59.6298 11.3362 60.2637 11.0623 61.0389C10.7778 61.8441 10.7862 62.7286 11.1764 63.6472L15.8294 56.9421ZM95.7325 49.7312C97.4102 50.3684 98.3913 50.7914 98.4215 52.4818C98.452 54.1263 97.5841 58.0778 84.3768 61.178C71.592 64.179 47.7463 66.2397 33.2263 66.2397C32.7808 66.2397 32.3528 66.2377 31.9258 66.2337C17.3452 66.1008 14.3045 63.6552 13.8237 62.5236L95.7325 49.7312ZM95.7325 49.7312C95.248 49.5474 95.0046 49.0051 95.1882 48.5216M95.7325 49.7312L95.1882 48.5216M15.005 62.0037C15.4466 61.6149 16.2754 61.104 17.6665 60.3548L11.1766 63.6476C11.8717 65.2848 13.6274 66.5915 16.7806 67.5136C19.9557 68.4421 24.7547 69.0445 31.8988 69.1097C32.3357 69.1137 32.7717 69.1158 33.226 69.1158C47.881 69.1158 71.9632 67.0459 85.034 63.9779L84.8062 63.0071L85.0341 63.9779C91.7652 62.3976 95.8286 60.4891 98.2162 58.4834C100.658 56.4325 101.331 54.2895 101.297 52.4307C101.265 50.6094 100.553 49.3728 99.5681 48.5297C98.6856 47.774 97.6148 47.3685 96.8652 47.0846C96.8274 47.0703 96.7904 47.0563 96.7542 47.0425L96.7532 47.0421C95.7525 46.6629 94.635 47.1657 94.2538 48.1653L94.2533 48.1666C93.8737 49.1663 94.3765 50.2861 95.3775 50.6661C96.2599 51.0012 96.7416 51.2093 97.0407 51.4679C97.2474 51.6466 97.4107 51.8855 97.4217 52.4997L97.4217 52.5004C97.4274 52.8057 97.393 53.2113 97.1805 53.6987C96.9666 54.1895 96.5493 54.815 95.7165 55.5213C94.0292 56.9524 90.6902 58.6688 84.1483 60.2045C71.4629 63.1821 47.6995 65.2397 33.2263 65.2397C32.7838 65.2397 32.359 65.2377 31.9352 65.2337L31.9349 65.2337C24.6859 65.1677 20.384 64.5259 17.8669 63.793C15.6362 63.1436 14.9683 62.4717 14.7935 62.2179C14.8355 62.1653 14.9022 62.0941 15.005 62.0037Z" fill="#FEFEFE" stroke="white" stroke-width="2"/>
</svg>
