<svg width="111" height="110" viewBox="0 0 111 110" fill="none" xmlns="http://www.w3.org/2000/svg">
<path d="M41.7847 42.123L9.21636 43.0532L8.76739 42.7165L8.65598 43.0692L8.36816 43.0774C7.3303 43.1058 6.42583 43.7898 6.11317 44.7799L6.11286 44.7809C5.80292 45.7661 6.14441 46.8452 6.97677 47.4675L52.4873 4.00158M41.7847 42.123L50.0293 5.55366L49.8318 4.94071L50.1709 4.92547L50.1764 4.90114L50.1765 4.90068C50.4182 3.8309 51.3447 3.05255 52.4413 3.00264M41.7847 42.123L42.8164 42.0935L42.5894 43.1004M52.4413 3.00264C52.4416 3.00263 52.4419 3.00261 52.4421 3.0026L52.4873 4.00158M52.4413 3.00264C52.441 3.00265 52.4407 3.00266 52.4404 3.00268L52.4873 4.00158M52.4413 3.00264C53.5423 2.95142 54.5339 3.64691 54.8695 4.69004L54.7824 4.71812L53.9077 4.75744L53.8185 4.76146C53.5622 4.2787 53.048 3.9753 52.4873 4.00158M51.1519 5.12107C51.171 5.0367 51.1972 4.95543 51.23 4.87785L51.1519 5.12107Z" fill="#FEFEFE" stroke="white" stroke-width="2"/>
</svg>
