<svg width="280" height="101" viewBox="0 0 280 101" fill="none" xmlns="http://www.w3.org/2000/svg">
<path fill-rule="evenodd" clip-rule="evenodd" d="M280 69.1797C280 68.9122 279.783 68.6953 279.516 68.6953C279.248 68.6953 279.031 68.9122 279.031 69.1797V84.4257C279.031 93.1134 271.988 100.156 263.301 100.156H238.714C238.508 100.156 238.34 100.324 238.34 100.531C238.34 100.738 238.508 100.905 238.714 100.905H263.895C272.79 100.905 280 93.6948 280 84.8003V69.1797Z" fill="white"/>
<path fill-rule="evenodd" clip-rule="evenodd" d="M1.14441e-05 32.6328C1.14441e-05 32.9003 0.216896 33.1172 0.484436 33.1172C0.751972 33.1172 0.968857 32.9003 0.968857 32.6328V17.3868C0.968857 8.69912 8.0116 1.65638 16.6993 1.65638L41.2856 1.65638C41.4925 1.65638 41.6602 1.4887 41.6602 1.28185C41.6602 1.075 41.4925 0.90731 41.2856 0.90731H16.105C7.21044 0.90731 1.14441e-05 8.11773 1.14441e-05 17.0122V32.6328Z" fill="white"/>
<path fill-rule="evenodd" clip-rule="evenodd" d="M280 32.6328C280 32.9003 279.783 33.1172 279.516 33.1172C279.248 33.1172 279.031 32.9003 279.031 32.6328V17.3868C279.031 8.69912 271.988 1.65638 263.301 1.65638H238.714C238.508 1.65638 238.34 1.4887 238.34 1.28185C238.34 1.075 238.508 0.90731 238.714 0.90731H263.895C272.79 0.90731 280 8.11773 280 17.0122V32.6328Z" fill="white"/>
<path fill-rule="evenodd" clip-rule="evenodd" d="M1.14441e-05 69.1797C1.14441e-05 68.9122 0.216896 68.6953 0.484436 68.6953C0.751972 68.6953 0.968857 68.9122 0.968857 69.1797V84.4257C0.968857 93.1134 8.0116 100.156 16.6993 100.156H41.2856C41.4925 100.156 41.6602 100.324 41.6602 100.531C41.6602 100.738 41.4925 100.905 41.2856 100.905H16.105C7.21044 100.905 1.14441e-05 93.6948 1.14441e-05 84.8003V69.1797Z" fill="white"/>
</svg>
