<svg width="230" height="101" viewBox="0 0 230 101" fill="none" xmlns="http://www.w3.org/2000/svg">
<path fill-rule="evenodd" clip-rule="evenodd" d="M230.002 69.0952C230.002 68.8754 229.824 68.6973 229.604 68.6973C229.385 68.6973 229.207 68.8754 229.207 69.0952V84.4277C229.207 93.1153 222.164 100.158 213.476 100.158H196.156C195.949 100.158 195.781 100.326 195.781 100.533C195.781 100.739 195.949 100.907 196.156 100.907H213.897C222.792 100.907 230.002 93.6967 230.002 84.8022V69.0952Z" fill="white"/>
<path fill-rule="evenodd" clip-rule="evenodd" d="M0.00149155 32.7173C0.00149155 32.9371 0.179649 33.1152 0.399414 33.1152C0.619183 33.1152 0.79734 32.9371 0.79734 32.7173V17.3848C0.79734 8.69717 7.84008 1.65443 16.5277 1.65443L33.8481 1.65443C34.055 1.65443 34.2227 1.48674 34.2227 1.27989C34.2227 1.07304 34.055 0.905357 33.8481 0.905357H16.1064C7.21192 0.905357 0.00149155 8.11578 0.00149155 17.0103V32.7173Z" fill="white"/>
<path fill-rule="evenodd" clip-rule="evenodd" d="M230.002 32.7173C230.002 32.9371 229.824 33.1152 229.604 33.1152C229.385 33.1152 229.207 32.9371 229.207 32.7173V17.3848C229.207 8.69717 222.164 1.65443 213.476 1.65443H196.156C195.949 1.65443 195.781 1.48674 195.781 1.27989C195.781 1.07304 195.949 0.905357 196.156 0.905357H213.897C222.792 0.905357 230.002 8.11578 230.002 17.0103V32.7173Z" fill="white"/>
<path fill-rule="evenodd" clip-rule="evenodd" d="M0.00149155 69.0952C0.00149155 68.8754 0.179649 68.6973 0.399414 68.6973C0.619183 68.6973 0.79734 68.8754 0.79734 69.0952V84.4277C0.79734 93.1153 7.84008 100.158 16.5277 100.158H33.8481C34.055 100.158 34.2227 100.326 34.2227 100.533C34.2227 100.739 34.055 100.907 33.8481 100.907H16.1064C7.21192 100.907 0.00149155 93.6967 0.00149155 84.8022V69.0952Z" fill="white"/>
</svg>
