<svg width="280" height="80" viewBox="0 0 280 80" fill="none" xmlns="http://www.w3.org/2000/svg">
<path fill-rule="evenodd" clip-rule="evenodd" d="M280 54.7149C280 54.4474 279.783 54.2305 279.516 54.2305C279.248 54.2305 279.031 54.4474 279.031 54.7149V66.8148C279.031 73.765 273.397 79.3992 266.447 79.3992H238.639C238.474 79.3992 238.34 79.5333 238.34 79.6988C238.34 79.8643 238.474 79.9984 238.639 79.9984H267.116C274.232 79.9984 280 74.2301 280 67.1144V54.7149Z" fill="white"/>
<path fill-rule="evenodd" clip-rule="evenodd" d="M1.14441e-05 25.2832C1.14441e-05 25.5507 0.216896 25.7676 0.484436 25.7676C0.751972 25.7676 0.968857 25.5507 0.968857 25.2832V13.1832C0.968857 6.23309 6.60306 0.59889 13.5532 0.59889L41.3605 0.59889C41.526 0.59889 41.6602 0.464743 41.6602 0.299263C41.6602 0.133781 41.526 -0.000366211 41.3605 -0.000366211L12.884 -0.000366211C5.76836 -0.000366211 1.14441e-05 5.76798 1.14441e-05 12.8836V25.2832Z" fill="white"/>
<path fill-rule="evenodd" clip-rule="evenodd" d="M280 25.2832C280 25.5507 279.783 25.7676 279.516 25.7676C279.248 25.7676 279.031 25.5507 279.031 25.2832V13.1832C279.031 6.23309 273.397 0.59889 266.447 0.59889H238.639C238.474 0.59889 238.34 0.464743 238.34 0.299263C238.34 0.133781 238.474 -0.000366211 238.639 -0.000366211H267.116C274.232 -0.000366211 280 5.76798 280 12.8836V25.2832Z" fill="white"/>
<path fill-rule="evenodd" clip-rule="evenodd" d="M1.14441e-05 54.7149C1.14441e-05 54.4474 0.216896 54.2305 0.484436 54.2305C0.751972 54.2305 0.968857 54.4474 0.968857 54.7149V66.8148C0.968857 73.765 6.60306 79.3992 13.5532 79.3992H41.3605C41.526 79.3992 41.6602 79.5333 41.6602 79.6988C41.6602 79.8643 41.526 79.9984 41.3605 79.9984H12.884C5.76836 79.9984 1.14441e-05 74.2301 1.14441e-05 67.1144V54.7149Z" fill="white"/>
</svg>
