<svg width="390" height="201" viewBox="0 0 390 201" fill="none" xmlns="http://www.w3.org/2000/svg">
<path fill-rule="evenodd" clip-rule="evenodd" d="M390 137.163C390 136.79 389.698 136.488 389.326 136.488C388.953 136.488 388.651 136.79 388.651 137.163V171.071C388.651 186.722 375.963 199.41 360.312 199.41H332.722C332.308 199.41 331.973 199.745 331.973 200.159C331.973 200.572 332.308 200.908 332.722 200.908H360.987C377.01 200.908 390 187.918 390 171.894V137.163Z" fill="white"/>
<path fill-rule="evenodd" clip-rule="evenodd" d="M-0.000400543 64.6514C-0.000400543 65.0241 0.301693 65.3262 0.674339 65.3262C1.04699 65.3262 1.34908 65.0241 1.34908 64.6514L1.34908 30.7439C1.34908 15.0927 14.0369 2.40482 29.6882 2.40482L57.2783 2.40482C57.692 2.40482 58.0273 2.06945 58.0273 1.65576C58.0273 1.24206 57.692 0.906693 57.2783 0.906693H29.0135C12.9895 0.906693 -0.000400543 13.8967 -0.000400543 29.9206L-0.000400543 64.6514Z" fill="white"/>
<path fill-rule="evenodd" clip-rule="evenodd" d="M390 64.6514C390 65.0241 389.698 65.3262 389.326 65.3262C388.953 65.3262 388.651 65.0241 388.651 64.6514V30.7439C388.651 15.0927 375.963 2.40482 360.312 2.40482H332.722C332.308 2.40482 331.973 2.06945 331.973 1.65576C331.973 1.24206 332.308 0.906693 332.722 0.906693H360.987C377.01 0.906693 390 13.8967 390 29.9206V64.6514Z" fill="white"/>
<path fill-rule="evenodd" clip-rule="evenodd" d="M-0.000400543 137.163C-0.000400543 136.79 0.301693 136.488 0.674339 136.488C1.04699 136.488 1.34908 136.79 1.34908 137.163L1.34908 171.071C1.34908 186.722 14.0369 199.41 29.6882 199.41H57.2783C57.692 199.41 58.0273 199.745 58.0273 200.159C58.0273 200.572 57.692 200.908 57.2783 200.908H29.0135C12.9895 200.908 -0.000400543 187.918 -0.000400543 171.894L-0.000400543 137.163Z" fill="white"/>
</svg>
