<svg width="960" height="267" viewBox="0 0 960 267" fill="none" xmlns="http://www.w3.org/2000/svg">
<path fill-rule="evenodd" clip-rule="evenodd" d="M959.355 182.66C959.355 181.743 958.611 181 957.695 181C956.778 181 956.035 181.743 956.035 182.66V223C956.035 246.196 937.231 265 914.035 265H817.613C817.061 265 816.613 265.448 816.613 266C816.613 266.552 817.061 267 817.613 267H916.355C940.103 267 959.355 247.748 959.355 224V182.66Z" fill="white"/>
<path fill-rule="evenodd" clip-rule="evenodd" d="M-7.62939e-05 84.3402C-7.62939e-05 85.2569 0.743027 86 1.6597 86C2.57639 86 3.31949 85.2569 3.31949 84.3402V44C3.31949 20.804 22.1235 2 45.3195 2L141.741 2C142.293 2 142.741 1.55228 142.741 1C142.741 0.447716 142.293 0 141.741 0L42.9999 0C19.2517 0 -7.62939e-05 19.2518 -7.62939e-05 43V84.3402Z" fill="white"/>
<path fill-rule="evenodd" clip-rule="evenodd" d="M959.355 84.3402C959.355 85.2569 958.611 86 957.695 86C956.778 86 956.035 85.2569 956.035 84.3402V44C956.035 20.804 937.231 2 914.035 2H817.613C817.061 2 816.613 1.55228 816.613 1C816.613 0.447716 817.061 0 817.613 0H916.355C940.103 0 959.355 19.2518 959.355 43V84.3402Z" fill="white"/>
<path fill-rule="evenodd" clip-rule="evenodd" d="M-7.62939e-05 182.66C-7.62939e-05 181.743 0.743027 181 1.6597 181C2.57639 181 3.31949 181.743 3.31949 182.66V223C3.31949 246.196 22.1235 265 45.3195 265H141.741C142.293 265 142.741 265.448 142.741 266C142.741 266.552 142.293 267 141.741 267H42.9999C19.2517 267 -7.62939e-05 247.748 -7.62939e-05 224V182.66Z" fill="white"/>
</svg>
