<svg width="578" height="288" viewBox="0 0 578 288" fill="none" xmlns="http://www.w3.org/2000/svg">
<path fill-rule="evenodd" clip-rule="evenodd" d="M578 202.598C578 202.045 577.552 201.598 577 201.598C576.448 201.598 576 202.045 576 202.598V243.598C576 266.794 557.196 285.598 534 285.598H493C492.448 285.598 492 286.045 492 286.598C492 287.15 492.448 287.598 493 287.598H535C558.748 287.598 578 268.346 578 244.598V202.598Z" fill="white"/>
<path fill-rule="evenodd" clip-rule="evenodd" d="M0 202.598C0 202.045 0.447716 201.598 1 201.598C1.55228 201.598 2 202.045 2 202.598V243.598C2 266.794 20.804 285.598 44 285.598H85C85.5523 285.598 86 286.045 86 286.598C86 287.15 85.5523 287.598 85 287.598H43C19.2518 287.598 0 268.346 0 244.598V202.598Z" fill="white"/>
<path fill-rule="evenodd" clip-rule="evenodd" d="M578 85.5977C578 86.1499 577.552 86.5977 577 86.5977C576.448 86.5977 576 86.1499 576 85.5977V44.5977C576 21.4017 557.196 2.59766 534 2.59766H493C492.448 2.59766 492 2.14994 492 1.59766C492 1.04537 492.448 0.597656 493 0.597656H535C558.748 0.597656 578 19.8494 578 43.5977V85.5977Z" fill="white"/>
<path fill-rule="evenodd" clip-rule="evenodd" d="M0 85.5977C0 86.1499 0.447716 86.5977 1 86.5977C1.55228 86.5977 2 86.1499 2 85.5977V44.5977C2 21.4017 20.804 2.59766 44 2.59766H85C85.5523 2.59766 86 2.14994 86 1.59766C86 1.04537 85.5523 0.597656 85 0.597656H43C19.2518 0.597656 0 19.8494 0 43.5977V85.5977Z" fill="white"/>
</svg>
