<svg width="304" height="151" viewBox="0 0 304 151" fill="none" xmlns="http://www.w3.org/2000/svg">
<path fill-rule="evenodd" clip-rule="evenodd" d="M304.001 103.118C304.001 102.827 303.766 102.592 303.475 102.592C303.185 102.592 302.949 102.827 302.949 103.118V127.693C302.949 139.893 293.059 149.783 280.859 149.783H259.331C259.021 149.783 258.77 150.034 258.77 150.345C258.77 150.655 259.021 150.906 259.331 150.906H281.385C293.876 150.906 304.001 140.781 304.001 128.29V103.118Z" fill="white"/>
<path fill-rule="evenodd" clip-rule="evenodd" d="M0.000652313 48.6947C0.000652313 48.9852 0.23613 49.2207 0.526604 49.2207C0.817081 49.2207 1.05256 48.9852 1.05256 48.6947V24.1196C1.05256 11.9197 10.9426 2.02971 23.1425 2.02971H44.6706C44.9809 2.02971 45.2324 1.77819 45.2324 1.46791C45.2324 1.15764 44.9809 0.906116 44.6706 0.906116H22.6165C10.1261 0.906116 0.000652313 11.0316 0.000652313 23.522V48.6947Z" fill="white"/>
<path fill-rule="evenodd" clip-rule="evenodd" d="M304.001 48.6947C304.001 48.9852 303.766 49.2207 303.475 49.2207C303.185 49.2207 302.949 48.9852 302.949 48.6947V24.1196C302.949 11.9197 293.059 2.02971 280.859 2.02971H259.331C259.021 2.02971 258.77 1.77819 258.77 1.46791C258.77 1.15764 259.021 0.906116 259.331 0.906116H281.385C293.876 0.906116 304.001 11.0316 304.001 23.522V48.6947Z" fill="white"/>
<path fill-rule="evenodd" clip-rule="evenodd" d="M0.000652313 103.118C0.000652313 102.827 0.23613 102.592 0.526604 102.592C0.817081 102.592 1.05256 102.827 1.05256 103.118V127.693C1.05256 139.893 10.9426 149.783 23.1425 149.783H44.6706C44.9809 149.783 45.2324 150.034 45.2324 150.345C45.2324 150.655 44.9809 150.906 44.6706 150.906H22.6165C10.1261 150.906 0.000652313 140.781 0.000652313 128.29V103.118Z" fill="white"/>
</svg>
