<svg width="289" height="31" viewBox="0 0 289 31" fill="none" xmlns="http://www.w3.org/2000/svg">
<path d="M286.754 13.5593C284.746 18.6815 282.358 23.6787 279.884 28.5865C278.716 30.9054 271.711 28.8286 272.547 27.1679C274.309 23.6737 275.968 20.1253 277.557 16.5491C278.17 15.1696 278.752 13.7762 279.312 12.3728C244.412 33.6165 198.38 30.8222 162.906 11.0853C149.342 27.7744 130.846 34.9671 109.687 28.8336C99.5457 25.8943 89.4275 19.945 81.3382 12.6994C67.786 26.8123 50.3552 33.7552 30.6529 29.6886C20.0518 27.5008 9.14701 22.2425 0.884703 15.0877C-2.4486 12.2 4.56154 11.2051 6.65015 13.0159C12.5388 18.1153 19.8676 21.7393 27.1665 24.1781C46.5166 30.6431 64.4987 21.9638 77.3029 7.07285C78.7294 5.4134 82.1772 5.83079 83.6135 7.29857C90.0312 13.8519 98.0894 19.1972 106.425 22.8339C126.758 31.7011 145.118 23.361 157.942 6.13973C159.144 4.52693 162.109 4.99854 163.574 5.88249C199.07 27.2965 246.378 29.2901 280.329 4.29618C272.646 3.00115 264.014 3.77791 256.425 3.86366C254.059 3.89014 248.412 0.421169 253.246 0.366947C263.574 0.249676 275.937 -1.09327 285.861 2.22437C291.34 4.05406 288.302 9.62004 286.754 13.5593Z" fill="#FA234D"/>
</svg>
