<svg width="3071" height="94" viewBox="0 0 3071 94" fill="none" xmlns="http://www.w3.org/2000/svg">
<path fill-rule="evenodd" clip-rule="evenodd" d="M3071 94C3070.59 42.0157 3028.06 0.000263275 2975.65 0.000258693C2934.05 0.000255056 2898.66 26.4845 2885.64 63.4151C2872.62 26.4845 2837.24 0.000246593 2795.63 0.000242956C2754.03 0.000239318 2718.64 26.4845 2705.62 63.415C2692.61 26.4845 2657.22 0.000230855 2615.62 0.000227218C2574.01 0.00022358 2538.63 26.4845 2525.61 63.415C2512.59 26.4845 2477.2 0.000215117 2435.6 0.00021148C2393.99 0.000207843 2358.61 26.4845 2345.59 63.415C2332.57 26.4844 2297.18 0.00019938 2255.58 0.000195742C2213.97 0.000192105 2178.59 26.4844 2165.57 63.415C2152.55 26.4844 2117.16 0.000183642 2075.56 0.000180004C2033.95 0.000176367 1998.57 26.4844 1985.55 63.415C1972.53 26.4844 1937.14 0.000167904 1895.54 0.000164267C1853.93 0.000160629 1818.55 26.4844 1805.53 63.415C1792.51 26.4844 1757.13 0.000152166 1715.52 0.000148529C1673.91 0.000144892 1638.53 26.4844 1625.51 63.4149C1612.49 26.4844 1577.11 0.000136428 1535.5 0.000132791C1493.89 0.000129154 1458.51 26.4844 1445.49 63.4149C1432.47 26.4844 1397.09 0.000120691 1355.48 0.000117053C1313.87 0.000113416 1278.49 26.4844 1265.47 63.4149C1252.45 26.4844 1217.07 0.000104953 1175.46 0.000101316C1133.85 9.76782e-05 1098.47 26.4843 1085.45 63.4149C1072.43 26.4843 1037.05 8.92151e-05 995.442 8.55778e-05C953.836 8.19404e-05 918.452 26.4843 905.433 63.4149C892.413 26.4843 857.03 7.34774e-05 815.423 6.984e-05C773.816 6.62026e-05 738.433 26.4843 725.413 63.4149C712.394 26.4843 677.01 5.77396e-05 635.404 5.41022e-05C593.797 5.04649e-05 558.414 26.4843 545.394 63.4149C532.375 26.4843 496.991 4.20018e-05 455.385 3.83644e-05C413.778 3.47271e-05 378.395 26.4843 365.375 63.4148C352.355 26.4843 316.972 2.6264e-05 275.365 2.26267e-05C233.759 1.89893e-05 198.375 26.4843 185.356 63.4148C172.336 26.4843 136.953 1.05262e-05 95.3462 6.88889e-06C42.9412 2.3075e-06 0.409673 42.0154 0 93.9997L3071 94Z" fill="white"/>
</svg>
