<svg width="3071" height="94" viewBox="0 0 3071 94" fill="none" xmlns="http://www.w3.org/2000/svg">
<path fill-rule="evenodd" clip-rule="evenodd" d="M0 0C0.409881 51.9843 42.9411 93.9997 95.3462 93.9997C136.953 93.9997 172.336 67.5155 185.356 30.5849C198.375 67.5155 233.759 93.9997 275.365 93.9997C316.972 93.9997 352.355 67.5154 365.375 30.5849C378.395 67.5154 413.778 93.9997 455.385 93.9997C496.991 93.9996 532.375 67.5154 545.394 30.5848C558.414 67.5154 593.797 93.9996 635.404 93.9996C677.01 93.9996 712.394 67.5154 725.414 30.5848C738.433 67.5154 773.817 93.9996 815.423 93.9996C857.03 93.9996 892.413 67.5153 905.433 30.5848C918.452 67.5153 953.836 93.9996 995.442 93.9996C1037.05 93.9996 1072.43 67.5153 1085.45 30.5847C1098.47 67.5153 1133.86 93.9995 1175.46 93.9995C1217.07 93.9995 1252.45 67.5153 1265.47 30.5847C1278.49 67.5153 1313.87 93.9995 1355.48 93.9995C1397.09 93.9995 1432.47 67.5152 1445.49 30.5847C1458.51 67.5152 1493.89 93.9995 1535.5 93.9995C1577.11 93.9995 1612.49 67.5152 1625.51 30.5846C1638.53 67.5152 1673.91 93.9994 1715.52 93.9994C1757.13 93.9994 1792.51 67.5152 1805.53 30.5846C1818.55 67.5152 1853.93 93.9994 1895.54 93.9994C1937.15 93.9994 1972.53 67.5151 1985.55 30.5846C1998.57 67.5151 2033.95 93.9994 2075.56 93.9994C2117.16 93.9994 2152.55 67.5151 2165.57 30.5845C2178.59 67.5151 2213.97 93.9993 2255.58 93.9993C2297.18 93.9993 2332.57 67.5151 2345.59 30.5845C2358.61 67.5151 2393.99 93.9993 2435.6 93.9993C2477.2 93.9993 2512.59 67.515 2525.61 30.5845C2538.63 67.515 2574.01 93.9993 2615.62 93.9993C2657.22 93.9993 2692.61 67.515 2705.63 30.5845C2718.64 67.515 2754.03 93.9993 2795.63 93.9992C2837.24 93.9992 2872.62 67.515 2885.64 30.5844C2898.66 67.515 2934.05 93.9992 2975.65 93.9992C3028.06 93.9992 3070.59 51.9838 3071 -0.000536951L0 0Z" fill="white"/>
</svg>
